<svg xmlns="http://www.w3.org/2000/svg" viewBox="0 0 100 100">
  <defs>
    <linearGradient id="grad" x1="0%" y1="0%" x2="100%" y2="100%">
      <stop offset="0%" style="stop-color:#4f46e5;stop-opacity:1" />
      <stop offset="100%" style="stop-color:#0f172a;stop-opacity:1" />
    </linearGradient>
  </defs>
  <circle cx="50" cy="50" r="45" fill="url(#grad)" />
  <path d="M50 20 L80 35 L80 65 L50 80 L20 65 L20 35 Z" fill="none" stroke="white" stroke-width="4" />
  <circle cx="50" cy="50" r="10" fill="white" />
  <circle cx="50" cy="20" r="4" fill="white" opacity="0.8" />
  <circle cx="80" cy="35" r="4" fill="white" opacity="0.8" />
  <circle cx="80" cy="65" r="4" fill="white" opacity="0.8" />
  <circle cx="50" cy="80" r="4" fill="white" opacity="0.8" />
  <circle cx="20" cy="65" r="4" fill="white" opacity="0.8" />
  <circle cx="20" cy="35" r="4" fill="white" opacity="0.8" />
  <path d="M50 50 L50 20 M50 50 L80 35 M50 50 L80 65 M50 50 L50 80 M50 50 L20 65 M50 50 L20 35" stroke="white" stroke-width="2" opacity="0.5" />
</svg>
